PathFileType	4	(X/Y/Z)	Patient4_TMGait_0pt6_02_right_30.trc.trc
DataRate	CameraRate	NumFrames	NumMarkers	Units	OrigDataRate	OrigDataStartFrame	OrigNumFrames
83.832335329341	83.832335329341	4	33	mm	83.832335329341	89	       141
Frame#	Time	Sacral			L.Shoulder			Chest			R.Shoulder			Neck			R.ASIS			L.ASIS			R.Thigh.Superior			R.Thigh.Lateral			R.Thigh.Inferior			R.Patella			L.Thigh.Superior			L.Thigh.Lateral			L.Thigh.Inferior			L.Patella			L.Shank.Superior			L.Shank.Lateral			L.Shank.Inferior			R.Shank.Superior			R.Shank.Lateral			R.Shank.Inferior			R.Heel			R.Midfoot.Superior			R.Midfoot.Lateral			R.Toe			L.Heel			L.Midfoot.Lateral			L.Midfoot.Superior			L.Toe			L.Elbow			L.Wrist			R.Elbow			R.Wrist			
		X1	Y1	Z1	X2	Y2	Z2	X3	Y3	Z3	X4	Y4	Z4	X5	Y5	Z5	X6	Y6	Z6	X7	Y7	Z7	X8	Y8	Z8	X9	Y9	Z9	X10	Y10	Z10	X11	Y11	Z11	X12	Y12	Z12	X13	Y13	Z13	X14	Y14	Z14	X15	Y15	Z15	X16	Y16	Z16	X17	Y17	Z17	X18	Y18	Z18	X19	Y19	Z19	X20	Y20	Z20	X21	Y21	Z21	X22	Y22	Z22	X23	Y23	Z23	X24	Y24	Z24	X25	Y25	Z25	X26	Y26	Z26	X27	Y27	Z27	X28	Y28	Z28	X29	Y29	Z29	X30	Y30	Z30	X31	Y31	Z31	X32	Y32	Z32	X33	Y33	Z33	

89	37.159714285714	866.482122988362	1020.455471831745	436.455851441080	1070.725328652375	1422.083882005360	225.368669982325	1176.406262385401	1351.715634121424	383.382920078506	1109.901640799532	1446.052181170543	554.097431906263	1085.394548875856	1490.468646861904	371.108789802487	1090.281646543628	942.839582974456	546.926179146238	1072.309876446311	952.155868262157	273.340970115829	1138.890292355607	745.843067868341	527.647049184666	1066.798019286936	635.749020142530	595.730270022480	1147.932027727236	578.487389112573	518.974621343583	1143.154595386419	467.880316442763	539.737021396539	1130.751667549566	756.865427520146	309.704380100900	1051.973199798028	635.915576443820	253.060400521956	1140.901082356548	564.583874875503	319.385205547935	1146.164220972695	493.923165349521	330.614460905723	1119.259237536903	420.623006715319	323.016960660362	1033.075210773078	305.906378356942	267.302499072651	1079.014275555939	195.316603302983	343.192728877945	1064.057163055329	402.445680439527	547.938514379259	943.574926214739	366.265350177262	610.903294036618	926.222086799459	257.502217691779	562.897564607023	722.925941791696	193.222855290936	538.252934995285	892.857471601480	142.020381345708	580.456621835942	784.683031501534	144.109727247942	616.592783273589	960.924796623668	38.412098699292	620.038396447839	947.950279052104	39.715766634602	376.530781880442	1027.317048004745	36.164192007927	301.750452742994	1108.569225632175	96.595785443919	333.713454192373	1238.869135240381	42.425865158579	315.213822620378	968.312073827136	1075.689236927451	132.235132538643	1036.214387078595	822.327713965165	124.932753744455	1120.594031396915	1102.215079183865	681.039909734400	1317.436048370118	981.158148632419	570.589029226997	
90	37.171642857143	865.656845121440	1020.655949623597	434.398950760380	1070.228604396152	1422.859135345228	223.972133585734	1175.449127840295	1352.519787263277	382.360483726327	1107.926959190748	1446.412549473931	552.976383443409	1084.302909665373	1491.133640697899	369.812805939394	1089.587729624662	943.430875690758	545.153356696957	1072.037646928708	952.831177062770	271.679975425127	1142.489546406084	749.260581471818	524.461342121434	1074.768029126585	637.870597530800	593.820239342739	1156.633711005275	582.319409787233	516.376847002618	1154.224828331952	470.800022288065	537.663663656133	1129.196711718132	756.028798186435	307.561715613505	1048.892085789167	635.840868351156	251.665685568393	1136.983882946450	563.750861775755	318.112397090012	1141.471634157397	493.229013068206	329.627122047347	1114.236509442425	420.112358429584	322.140468460626	1027.447976654531	305.742205785257	266.738599751436	1072.677245391357	195.075985932576	342.913982507517	1073.896836482815	405.314139942962	546.221171159094	952.295622977826	371.986899092705	608.851953700235	932.735338173481	263.408077303952	561.472423474637	728.414563761630	204.600427661452	536.090452873072	896.589292517845	148.065660829238	579.264208272752	788.208078991233	153.970488516224	615.072788351539	961.147308564058	41.588548108389	620.104958040718	940.799300105021	39.822976669773	376.510544519658	1020.147790220506	36.185527980295	301.755869551162	1101.520099655549	96.518981450009	333.656025062987	1231.746828243192	42.058912332450	315.135070150451	970.871569884119	1076.212050287578	128.227909146847	1048.150791317173	825.542730504989	119.188643848261	1113.479136338663	1102.293517110441	680.450296154034	1303.475081242925	963.593660869788	577.009160811029	
91	37.183571428571	864.785656936108	1020.844920600909	432.436730639307	1069.649942171998	1423.650960613081	222.769054550348	1174.444669101121	1353.241832707386	381.471801899652	1105.984164244863	1446.568205233252	552.074056537786	1083.183682336022	1491.757437851638	368.782555013202	1088.806542802194	944.035089146125	543.400292025229	1071.645816573188	953.441479638388	270.012507756308	1145.743258556531	752.818786692924	521.212710344757	1082.505694443698	640.306496786864	592.060389816599	1164.970824144165	586.528985861750	513.871361886202	1165.150041092105	474.222256456838	535.691270492777	1127.620581972916	755.272142615823	305.565034750678	1045.780313033062	635.776438209241	250.365940499232	1133.060817180169	562.936045514921	316.891121717532	1136.793718038377	492.541593748229	328.706532692526	1109.221330921180	419.614950382370	321.314096154647	1021.810792599365	305.609673348668	266.211560999263	1066.344994813544	194.855877719908	342.646491063096	1083.882128887262	408.472717296072	544.646950956828	961.337235688010	377.459104104240	606.890084286290	940.104145572318	268.999849807980	560.110962408415	735.106876009435	214.418779399837	533.880555404295	901.761620381614	153.895361224681	578.216004903392	793.211707346397	162.741398889862	613.515061720333	963.468448142543	45.280974218417	620.220074376326	933.644157025032	39.939682549166	376.484980028929	1012.979697763428	36.221218151695	301.757875716931	1094.460152128041	96.467703425850	333.592632463596	1224.612439716085	41.758494645031	315.054847260832	973.509402875964	1076.741380822400	124.444678003338	1060.086653891458	829.184365842933	113.602615862807	1106.062729475905	1102.177499470751	680.007409906196	1288.018629721623	946.567454967040	584.465113605934	
92	37.195500000000	863.871966285638	1021.048574814367	430.545967384888	1069.044949943997	1424.470064089269	221.743385773116	1173.419590639044	1353.889001765958	380.715053693347	1104.095316268710	1446.553587279664	551.367453524329	1082.076020145216	1492.353160982587	367.995842693254	1087.935976600485	944.688943947252	541.695887702240	1071.146134837248	953.998356955271	268.365902735841	1148.661268423330	756.516518632200	518.055017029695	1089.880845299786	643.048665188145	590.494974682397	1172.893395680788	591.092828976696	511.574120935786	1175.824317577112	478.136552609146	533.912545406968	1125.967033206903	754.570929043602	303.738515971106	1042.603578909230	635.729949198677	249.153642565082	1129.075436285976	562.139166518937	315.738791489099	1132.069859123596	491.860948624651	327.850983514705	1104.162355243011	419.138669591114	320.531054879270	1016.125863389003	305.506869929804	265.717805663657	1059.992246142667	194.660478080140	342.387175657588	1093.946374588203	411.900174551260	543.272755137730	970.645423540147	382.548901580769	605.083741650864	948.359580187968	274.107031989868	558.865767120776	743.011556614047	222.359094154555	531.719926964185	908.498092122416	159.242608956054	577.326626432229	799.780320323500	170.087975899415	611.985623307573	968.126796460056	49.225324134156	620.350898226722	926.483792562091	40.063977287970	376.457291805058	1005.812536289926	36.268308790051	301.758514613159	1087.389388920558	96.439140771223	333.522800149087	1217.467357864143	41.518535983646	314.974082361778	976.186463221356	1077.308285947932	120.910321320650	1071.946207187305	833.271145586158	108.217344481134	1098.353476312102	1101.943101404747	679.734037052148	1271.086655166759	930.314271547973	592.908612957301	
